<svg xmlns="http://www.w3.org/2000/svg" viewBox="0 0 64 64">
  <rect width="64" height="64" rx="14" fill="#000000"/>
  <path d="M42 16c0 4.8 4 8.8 8.8 8.8V32c-3.9 0-7.8-1.3-10.8-3.6v15.8c0 7.5-6.1 13.5-13.6 13.5S12.8 51.7 12.8 44.2 18.9 30.6 26.4 30.6c1.7 0 3.4.3 4.8.9V38c-1-.5-2.1-.8-3.2-.8-3.6 0-6.5 2.9-6.5 6.5s2.9 6.5 6.5 6.5 6.5-2.9 6.5-6.5V12h7.5V16z" fill="#00f2ea"/>
  <path d="M44.8 23.6c-3.9 0-7.6-1.4-10.4-3.8v15.4c0 7.5-6.1 13.5-13.6 13.5-3.4 0-6.5-1.3-8.8-3.4 2.5 4.5 7.3 7.5 12.8 7.5 7.5 0 13.6-6 13.6-13.5V23c3 2.3 6.9 3.6 10.8 3.6v-6c-1 0-2-.3-2.9-.6l-.5-3.4c-1.7-2.2-1-2.4-1 6z" fill="#ff0050" opacity="0.7"/>
</svg>
