<svg xmlns="http://www.w3.org/2000/svg" viewBox="0 0 64 64">
  <rect width="64" height="64" rx="14" fill="#1d9bf0"/>
  <path d="M48 20.2c-1.4.6-2.8 1-4.3 1.2 1.6-1 2.8-2.5 3.4-4.3-1.5.9-3.1 1.6-4.9 2-1.4-1.5-3.4-2.4-5.6-2.4-4.3 0-7.8 3.5-7.8 7.8 0 .6.1 1.3.2 1.9-6.5-.3-12.4-3.4-16.3-8.2-.7 1.1-1.1 2.5-1.1 3.9 0 2.7 1.4 5.1 3.5 6.5-1.3 0-2.5-.4-3.6-1v.1c0 3.8 2.7 6.9 6.3 7.6-.7.2-1.4.3-2.2.3-.5 0-1-.1-1.5-.1 1 3.1 3.9 5.4 7.4 5.5-2.7 2.1-6.1 3.3-9.8 3.3-.6 0-1.2 0-1.8-.1 3.5 2.3 7.7 3.6 12.2 3.6 14.6 0 22.6-12.1 22.6-22.6 0-.3 0-.7 0-1 1.5-1.1 2.8-2.4 3.8-3.9z" fill="#ffffff"/>
</svg>
